# xmcd
#
# Track frame offsets: 
#        150
#        7790
#        17617
#        28885
#        40530
#        58217
#        85200
#        101492
#        118582
#        135200
#        152180
#        161332
#        177810
#        196940
#        211855
#
# Disc length: 3019 seconds
#
# Revision: 3
# Processed by: cddbd v1.5.2PL0 Copyright (c) Steve Scherf et al.
# Submitted via: ExactAudioCopy v0.95b4
#
DISCID=ae0bc90f
DTITLE=Various Artist - When the Fiddler Packs His Case It's All Over
DYEAR=1995
DGENRE=Country
TTITLE0=Michael Ballew - Country Music
TTITLE1=James Talley - Got No Bread, No Milk, No Money
TTITLE2=Billy Stone - Brand New, Shade of Red
TTITLE3=Tompall Glaser - My Mother Was a Lady
TTITLE4=Lesley Schatz - Merlin and the Cowboy
TTITLE5=Texas Lone Star - Desperados Waiting for the Train
TTITLE6=Bobby Bare - Me and Bobby McGee
TTITLE7=Bobby Bare - Sylvia's Mother
TTITLE8=Texas Lone Star - Good Hearted Woman
TTITLE9=Lesley Schatz - Back to Your Arms
TTITLE10=Tompall Glaser - Duncan and Bady
TTITLE11=Billy Stone - The Last Dallas Cowboy
TTITLE12=James Talley - Are They Gonna Make Us Outlaws Again
TTITLE13=Michael Ballew - Your Daddy Don't Live in Heaven
TTITLE14=James Talley - When the Fiddler Packs His Case It's All Over
EXTD=
EXTT0=
EXTT1=
EXTT2=
EXTT3=
EXTT4=
EXTT5=
EXTT6=
EXTT7=
EXTT8=
EXTT9=
EXTT10=
EXTT11=
EXTT12=
EXTT13=
EXTT14=
PLAYORDER=
